# xmcd
#
# Track frame offsets: 
#        150
#        21310
#        41255
#        56918
#        86207
#        105533
#        126107
#        151880
#        166957
#        189320
#        206070
#
# Disc length: 3162 seconds
#
# Revision: 4
# Processed by: cddbd v1.5.1PL0 Copyright (c) Steve Scherf et al.
# Submitted via: ExactAudioCopy v0.95a5
#
DISCID=8f0c580b
DTITLE=Bernard Allison - Born With The Blues
DYEAR=1997
DGENRE=blues
TTITLE0=Baby Chile
TTITLE1=Tell Me Why
TTITLE2=Walkin'
TTITLE3=Young Boy's Blues
TTITLE4=In The Open
TTITLE5=You Gave Me The Blues
TTITLE6=Home Goin'
TTITLE7=When I'm Lonely
TTITLE8=A Change Must Come
TTITLE9=Rocket 88
TTITLE10=Garbage Man
EXTD=
EXTT0=
EXTT1=
EXTT2=
EXTT3=
EXTT4=
EXTT5=
EXTT6=
EXTT7=
EXTT8=
EXTT9=
EXTT10=
PLAYORDER=
